<?xml version="1.0" encoding="utf-8"?>
<!-- Generator: Adobe Illustrator 25.2.1, SVG Export Plug-In . SVG Version: 6.00 Build 0)  -->
<svg version="1.1" id="Layer_1" xmlns="http://www.w3.org/2000/svg" xmlns:xlink="http://www.w3.org/1999/xlink" x="0px" y="0px"
	 viewBox="7900 9000 9110 9100" width="500" height="500">
<style type="text/css">
	.st0{fill:#ffffff;}
</style>
	<g style="
    transform-origin: 0 0;
    transform: scale(90) translate(-5967px, -5056px)
">
		<path class="st0" d="M6146.89,5190.35v-6.53l-5.65-3.26v-6.54l-5.68-3.27l-0.02-0.01l-5.64,3.26l-5.35-3.08
			c0.02-0.04,0.02-0.08,0.02-0.13c0-0.19-0.16-0.35-0.35-0.35c-0.19,0-0.35,0.16-0.35,0.35c0,0.05,0.01,0.09,0.03,0.14l-5.33,3.07
			l-5.6-3.24v-6.55l-5.7-3.29l-5.65,3.27l-5.63-3.25l-0.02-0.01l-5.65,3.26l-5.63-3.25l-0.02-0.01l-5.38,3.11
			c-0.06-0.09-0.17-0.15-0.28-0.15c-0.19,0-0.35,0.16-0.35,0.35c0,0.06,0.02,0.11,0.04,0.16l-5.34,3.08l-0.01,0.01l-0.01,6.49
			l-0.03,0.02l0,0.02l-5.62,3.25l0.01,6.49l-0.04,0.02v0.04l-5.61,3.22l-0.01,0.01l0.01,6.5l-0.03,0.02l0,0.03l-5.61,3.23
			l-0.01,0.01l-0.01,6.54v0.01l5.65,3.26v6.53l5.65,3.27v6.51l5.65,3.27v6.52l5.67,3.27l0.01,0.01l5.62-3.25l0.03,0.02l0.04-0.02
			l5.6,3.23v6.54l5.66,3.26l0.01,0.01l5.21-3.01c0.09,0.14,0.25,0.24,0.44,0.24c0.18,0,0.35-0.1,0.44-0.24l5.22,3.02l5.62-3.25
			l0.03,0.02l0.04-0.02l5.61,3.26l0.01,0.01l5.6-3.24l-0.01,6.47v0.03l5.7,3.28l5.68-3.28l0.02-0.01v-6.56l-5.65-3.27v-6.47
			l5.6-3.24l5.65,3.27l5.7-3.3v-6.59l-5.65-3.26v-6.45l5.63-3.25l0.02-0.01v-6.53l5.65-3.26l0.01-6.55v-0.03L6146.89,5190.35z
			 M6144.03,5182.28l2.76,1.6v6.47l-5.57,3.22v-3.22l2.76-1.61l0.01-0.01L6144.03,5182.28z M6143.98,5182.25l-0.04,6.45l-2.72,1.59
			v-2.61c0.3-0.02,0.54-0.26,0.54-0.57c0-0.31-0.25-0.57-0.57-0.57c-0.2,0-0.37,0.1-0.47,0.25l-5.1-2.94l5.57-3.22L6143.98,5182.25z
			 M6129.83,5232.83v6.44l-2.75,1.59v-6.45L6129.83,5232.83z M6127.08,5234.36v-3.14l2.72,1.57L6127.08,5234.36z M6127.08,5231.1
			v-6.45l2.3,1.33c-0.04,0.08-0.07,0.17-0.07,0.27c0,0.31,0.25,0.56,0.55,0.57v5.89L6127.08,5231.1z M6129.4,5225.94l-2.3-1.33
			l5.57-3.22l2.77,1.6l-5.09,2.95c-0.1-0.16-0.28-0.26-0.48-0.26C6129.68,5225.68,6129.5,5225.79,6129.4,5225.94z M6132.68,5221.28
			l-2.48-1.44c0.02-0.04,0.03-0.09,0.03-0.14c0-0.18-0.13-0.32-0.3-0.34l0-2.85l2.76,1.58L6132.68,5221.28z M6129.91,5213.13v-6.44
			l2.77-1.6l0.01,6.42L6129.91,5213.13z M6129.56,5219.84l-5.3,3.07l0.01-6.45l2.77-1.61l2.8,1.6l0,2.9
			c-0.17,0.02-0.3,0.17-0.3,0.34C6129.53,5219.75,6129.54,5219.8,6129.56,5219.84z M6123.75,5229.72l-2.33,1.34v-6.43l2.75-1.59
			v5.95c-0.26,0.02-0.47,0.25-0.47,0.52C6123.7,5229.58,6123.72,5229.65,6123.75,5229.72z M6118.6,5232.68v-6.42l2.77-1.61v6.43
			L6118.6,5232.68z M6121.38,5231.2v3.16l-2.74-1.58L6121.38,5231.2z M6118.58,5226.22l-5.58-3.23l5.57-3.22l2.81,1.62v3.2
			L6118.58,5226.22z M6101.66,5229.16v-6.15l5.59,3.24v6.01c-0.16,0.01-0.3,0.09-0.39,0.2l-4.93-2.83c0.02-0.04,0.02-0.08,0.02-0.13
			C6101.96,5229.33,6101.83,5229.19,6101.66,5229.16z M6101.29,5229.63l-2.49,1.43v-6.44l2.76-1.6v6.14
			c-0.17,0.02-0.3,0.17-0.3,0.34C6101.26,5229.55,6101.27,5229.59,6101.29,5229.63z M6096.03,5232.77l2.72-1.57v3.13
			L6096.03,5232.77z M6098.75,5234.39v6.45l-2.74-1.58v-6.45L6098.75,5234.39z M6095.99,5232.68v-5.89c0.3-0.02,0.54-0.26,0.54-0.57
			c0-0.09-0.02-0.18-0.06-0.25l2.29-1.32v6.44L6095.99,5232.68z M6096.44,5225.93c-0.1-0.16-0.28-0.27-0.48-0.27
			c-0.2,0-0.38,0.11-0.48,0.27l-4.71-2.71c0.04-0.07,0.06-0.16,0.06-0.25c0-0.07-0.02-0.14-0.04-0.2l5.18-2.98l2.79,1.61v3.21
			L6096.44,5225.93z M6089.85,5223.22l-2.37,1.37v-3.18l2.35,1.36c-0.03,0.06-0.04,0.13-0.04,0.2
			C6089.79,5223.06,6089.81,5223.15,6089.85,5223.22z M6089.88,5223.26c0.08,0.12,0.22,0.21,0.38,0.22v5.98l-2.78,1.61v-6.43
			L6089.88,5223.26z M6089.87,5222.68l-2.36-1.36l2.78-1.62v2.76C6090.12,5222.45,6089.96,5222.54,6089.87,5222.68z
			 M6087.46,5221.29l-2.76-1.6v-6.47l5.59,3.25v3.17L6087.46,5221.29z M6062.13,5193.62l2.79-1.61l5.56,3.23l-2.76,1.6
			L6062.13,5193.62z M6067.69,5196.89v6.17c-0.11,0-0.2,0.05-0.26,0.13l-5.34-3.08l0.01-6.45L6067.69,5196.89z M6067.73,5196.89
			l2.76-1.6l0.01,6.43l-2.54,1.46c-0.06-0.07-0.14-0.12-0.23-0.13V5196.89z M6067.74,5203.75c0.11-0.01,0.2-0.08,0.25-0.16
			l4.86,2.81c-0.05,0.08-0.07,0.18-0.07,0.28c0,0.31,0.25,0.56,0.56,0.57l-0.01,5.89l-5.59-3.23V5203.75z M6072.88,5206.35
			l-4.86-2.81c0.02-0.04,0.03-0.09,0.03-0.14s-0.01-0.1-0.03-0.14l2.54-1.46l5.59,3.23l-2.32,1.34c-0.1-0.16-0.28-0.26-0.48-0.26
			C6073.15,5206.11,6072.98,5206.2,6072.88,5206.35z M6078.99,5177.86l-0.01,5.62c-0.11,0-0.2,0.06-0.26,0.13l-5.32-3.08l-0.01-6.46
			l5.12,2.95c-0.04,0.08-0.07,0.17-0.07,0.27C6078.45,5177.6,6078.69,5177.84,6078.99,5177.86z M6079.52,5177.03l2.3-1.32
			l-0.02,6.45l-2.52,1.46c-0.06-0.07-0.14-0.12-0.24-0.13l0.01-5.62c0.3-0.01,0.54-0.26,0.54-0.57
			C6079.58,5177.19,6079.56,5177.1,6079.52,5177.03z M6084.61,5177.31l0,3.22l-2.76,1.59l0.02-6.42L6084.61,5177.31z
			 M6081.89,5175.66l2.34-1.34c0.08,0.13,0.22,0.23,0.39,0.25l0,2.69L6081.89,5175.66z M6084.65,5180.61l5.18,2.99
			c-0.03,0.06-0.05,0.14-0.05,0.21c0,0.09,0.02,0.18,0.06,0.25l-5.18,2.99l-2.83-1.63l0.01-3.19L6084.65,5180.61z M6095.95,5168.09
			l0,2.64l-2.77-1.61v-3.2l2.29,1.32c-0.05,0.08-0.08,0.18-0.08,0.28C6095.39,5167.83,6095.64,5168.09,6095.95,5168.09z
			 M6095.97,5180.62l5.58,3.22l-5.1,2.95c-0.1-0.15-0.28-0.25-0.47-0.25s-0.37,0.1-0.47,0.25l-4.73-2.74
			c0.04-0.07,0.06-0.15,0.06-0.23c0-0.07-0.02-0.14-0.04-0.21L6095.97,5180.62z M6101.6,5180.57l0,3.2l-5.59-3.23l-0.01-6.46
			l2.76,1.59l0.02,3.25v0.01L6101.6,5180.57z M6098.82,5175.7l2.78,1.6l0,3.21l-2.77-1.6L6098.82,5175.7z M6127.03,5192.04l0,3.06
			v0.14l-2.32,1.35c-0.1-0.17-0.28-0.28-0.49-0.28c-0.21,0-0.39,0.11-0.48,0.27l-2.31-1.34v-3.22l2.8-1.61L6127.03,5192.04z
			 M6124.27,5190.33v-5.99c0.17-0.01,0.31-0.1,0.4-0.23l2.35,1.36l0.01,6.46L6124.27,5190.33z M6124.25,5203.04v-5.61
			c0.3-0.02,0.54-0.26,0.54-0.57c0-0.09-0.02-0.17-0.06-0.24l2.3-1.33v6.44l-2.52,1.47
			C6124.45,5203.11,6124.36,5203.05,6124.25,5203.04z M6124.27,5206.71l2.77,1.59l-0.01,3.19l-2.76-1.6V5206.71z M6123.91,5203.55
			l-2.49,1.45v-3.15l2.47,1.44c-0.01,0.03-0.02,0.07-0.02,0.11C6123.87,5203.45,6123.89,5203.5,6123.91,5203.55z M6123.94,5203.59
			c0.05,0.08,0.14,0.13,0.24,0.15v2.87l-2.73-1.57L6123.94,5203.59z M6123.93,5203.2l-2.51-1.46v-6.44l2.29,1.33
			c-0.04,0.08-0.06,0.16-0.06,0.25c0,0.31,0.25,0.56,0.55,0.57v5.61C6124.09,5203.05,6123.99,5203.11,6123.93,5203.2z
			 M6121.42,5191.91v-6.43l2.38-1.38c0.08,0.13,0.22,0.21,0.37,0.23v6L6121.42,5191.91z M6124.21,5183.3
			c-0.17,0.01-0.32,0.1-0.41,0.24l-2.35-1.36l2.76-1.6L6124.21,5183.3z M6123.76,5183.63c-0.02,0.06-0.04,0.13-0.04,0.19
			c0,0.09,0.02,0.17,0.06,0.24l-2.37,1.37l-2.78-1.61l2.72-1.58L6123.76,5183.63z M6118.9,5193.78c0.02-0.04,0.03-0.09,0.03-0.15
			c0-0.06-0.02-0.11-0.04-0.16l2.48-1.42v3.16L6118.9,5193.78z M6121.38,5195.27v6.44l-2.75-1.6l-0.01-6.13
			c0.11-0.01,0.21-0.07,0.26-0.16L6121.38,5195.27z M6118.84,5193.4c-0.06-0.06-0.14-0.11-0.24-0.11v-6.17l2.77-1.61v6.43
			L6118.84,5193.4z M6121.38,5201.82v3.2l-2.8,1.63l-5.19-3.02c0.04-0.07,0.06-0.16,0.06-0.24c0-0.08-0.02-0.15-0.05-0.22l5.17-2.98
			L6121.38,5201.82z M6118.6,5209.96l2.73,1.59l-2.34,1.36c-0.09-0.12-0.23-0.2-0.39-0.21V5209.96z M6115.75,5211.51l-2.79-1.61
			v-5.99c0.17-0.01,0.32-0.1,0.4-0.23l5.19,3.02v3.2L6115.75,5211.51z M6118.55,5209.95v2.74c-0.16,0-0.31,0.08-0.4,0.21l-2.35-1.36
			L6118.55,5209.95z M6110.09,5214.78l-2.75-1.59l5.58-3.21l2.74,1.58L6110.09,5214.78z M6110.11,5221.41l2.73,1.58l-2.73,1.58
			V5221.41z M6090.35,5209.39l0.01-5.94l2.77,1.6v3.24l-0.03,3.19l-2.31-1.34c0.03-0.07,0.05-0.15,0.05-0.23
			C6090.84,5209.63,6090.63,5209.41,6090.35,5209.39z M6090.83,5196.61l5.09-2.95l0,3.21l-5.57,3.19l0-2.62
			c0.3-0.01,0.54-0.26,0.54-0.57C6090.89,5196.78,6090.87,5196.69,6090.83,5196.61z M6095.95,5187.67l-0.01,5.88l-5.58-3.22v-5.99
			c0.16-0.02,0.3-0.11,0.38-0.24l4.73,2.74c-0.05,0.08-0.07,0.17-0.07,0.27C6095.41,5187.41,6095.65,5187.66,6095.95,5187.67z
			 M6096.47,5186.83l5.1-2.95l-0.01,6.44l-5.57,3.23l0.01-5.88c0.3-0.01,0.54-0.26,0.54-0.57
			C6096.54,5187.01,6096.52,5186.91,6096.47,5186.83z M6096.01,5196.87l0-3.21l2.78,1.6l-0.01,3.21L6096.01,5196.87z
			 M6098.78,5198.53l-0.01,3.18l-2.76-1.59l0-3.19L6098.78,5198.53z M6098.76,5201.82l-0.01,3.19l-5.51-3.24l2.72-1.57
			L6098.76,5201.82z M6095.91,5196.92l0,3.19l-2.77,1.6l-0.01-0.01v0.01l-2.79,1.62l0-3.23L6095.91,5196.92z M6093.13,5201.83v3.17
			l-2.74-1.58L6093.13,5201.83z M6093.15,5211.62l2.72,1.58l-2.75,1.6L6093.15,5211.62z M6093.15,5211.51l0.03-3.22v-3.21l2.29,1.32
			c-0.04,0.08-0.07,0.17-0.07,0.27c0,0.3,0.24,0.55,0.54,0.57l-0.01,5.89L6093.15,5211.51z M6095.5,5206.37l-2.32-1.34v-3.22
			l0.01-0.01l5.53,3.25l-2.27,1.31c-0.1-0.16-0.28-0.26-0.48-0.26S6095.6,5206.21,6095.5,5206.37z M6096,5207.24
			c0.3-0.01,0.54-0.26,0.54-0.57c0-0.1-0.02-0.19-0.07-0.27l2.3-1.33l0.03,0.02l0-0.03l2.53-1.46c0.05,0.09,0.14,0.15,0.24,0.16
			l-0.01,6.12l-5.57,3.24L6096,5207.24z M6101.31,5203.56l-2.51,1.45l0.01-3.16l2.49,1.44c-0.02,0.04-0.03,0.09-0.03,0.14
			C6101.28,5203.47,6101.29,5203.51,6101.31,5203.56z M6101.36,5203.2l-2.54-1.47l0.01-3.18l2.77,1.6l0,2.92
			C6101.5,5203.08,6101.41,5203.13,6101.36,5203.2z M6098.82,5198.5l0.01-3.21l2.77,1.6l0,3.22L6098.82,5198.5z M6098.86,5195.25
			l5.57-3.22l2.36,1.36c-0.03,0.06-0.04,0.13-0.04,0.2c0,0.09,0.02,0.18,0.07,0.25l-5.18,3L6098.86,5195.25z M6101.65,5183.76
			l0-3.17l2.74,1.58L6101.65,5183.76z M6104.42,5182.27v3.14l-2.72-1.57L6104.42,5182.27z M6101.67,5183.87l2.75,1.59v6.45
			l-2.76-1.59L6101.67,5183.87z M6107.32,5180.06l-0.01-5.97l5.6,3.24l-0.01,6.17c-0.1,0-0.18,0.05-0.24,0.12l-4.9-2.83
			c0.03-0.06,0.04-0.13,0.04-0.21C6107.8,5180.31,6107.59,5180.08,6107.32,5180.06z M6113.23,5183.69l2.52-1.45l-0.01,3.19
			l-2.5-1.45c0.02-0.04,0.03-0.09,0.03-0.14C6113.27,5183.79,6113.25,5183.74,6113.23,5183.69z M6115.74,5185.49l-0.01,6.42
			l-2.76-1.59l-0.01-6.13c0.11-0.01,0.2-0.08,0.25-0.17L6115.74,5185.49z M6115.68,5191.99l-5.43,3.3l-2.53-1.46
			c0.04-0.07,0.06-0.15,0.06-0.24c0-0.07-0.01-0.14-0.04-0.2l5.18-3L6115.68,5191.99z M6107.3,5209.98v-3.32l2.84-1.63l-0.07,6.47
			l0,0L6107.3,5209.98z M6110.02,5211.54l-2.72,1.57v-3.06L6110.02,5211.54z M6110.18,5205.01l2.32-1.33
			c0.08,0.13,0.22,0.21,0.37,0.23v5.99l-2.75,1.58L6110.18,5205.01z M6112.47,5203.63l-2.29,1.32l0.03-3.05l2.24,1.29
			c-0.03,0.06-0.04,0.13-0.04,0.2C6112.41,5203.48,6112.43,5203.56,6112.47,5203.63z M6110.17,5201.76l-2.86-1.64l0.01-6.01
			c0.16-0.02,0.3-0.11,0.38-0.23l2.53,1.46L6110.17,5201.76z M6112.5,5203.1l-2.29-1.31l0.07-6.42l2.62,1.51l0.01,6
			C6112.74,5202.88,6112.59,5202.97,6112.5,5203.1z M6112.87,5184.19l0.01,6.13l-5.18,2.99c-0.09-0.13-0.23-0.22-0.4-0.24
			l-0.01-5.98l5.33-3.06C6112.67,5184.12,6112.76,5184.18,6112.87,5184.19z M6110.17,5201.87l-0.03,3.11l-2.86,1.65l-2.8-1.61v-3.2
			l2.79-1.62L6110.17,5201.87z M6104.56,5211.56l2.69-1.53v3.08L6104.56,5211.56z M6107.2,5213.19l-2.73,1.57v-3.15L6107.2,5213.19z
			 M6104.51,5211.53l-0.04-0.02v-6.44l2.78,1.6v3.31L6104.51,5211.53z M6104.47,5191.94v-6.45l2.78,1.6l0.01,5.98
			c-0.18,0-0.33,0.09-0.42,0.23L6104.47,5191.94z M6101.65,5200.19l2.73,1.58l-2.48,1.43c-0.06-0.07-0.15-0.12-0.25-0.12
			L6101.65,5200.19z M6101.67,5203.76c0.11-0.01,0.2-0.07,0.25-0.16l2.5,1.44v6.44l-2.76-1.6L6101.67,5203.76z M6101.94,5203.56
			c0.02-0.04,0.03-0.09,0.03-0.14c0-0.05-0.01-0.1-0.03-0.14l2.48-1.43v3.14L6101.94,5203.56z M6101.65,5200.13l0-3.24l5.19-3
			c0.09,0.12,0.23,0.21,0.39,0.22l-0.01,6.01l-2.79,1.62L6101.65,5200.13z M6104.47,5214.82l2.75-1.58v6.14
			c-0.17,0.02-0.3,0.17-0.3,0.34c0,0.04,0.01,0.08,0.02,0.12l-2.47,1.43V5214.82z M6106.98,5219.93c0.06,0.09,0.17,0.15,0.28,0.15
			c0.12,0,0.22-0.06,0.28-0.15l2.52,1.46v3.17l-5.55-3.2L6106.98,5219.93z M6107.59,5219.84c0.01-0.04,0.02-0.08,0.02-0.12
			c0-0.18-0.13-0.32-0.3-0.34v-6.15l2.75,1.59v6.45L6107.59,5219.84z M6112.95,5196.88l5.34-3.07c0.05,0.08,0.13,0.15,0.23,0.16
			l0.01,6.13l-5.17,2.98c-0.09-0.13-0.23-0.21-0.4-0.22L6112.95,5196.88z M6118.55,5193.29c-0.09,0.01-0.17,0.05-0.23,0.12
			l-2.54-1.47l0.01-6.42l2.76,1.6V5193.29z M6118.27,5193.49c-0.02,0.04-0.03,0.09-0.03,0.15c0,0.05,0.01,0.1,0.03,0.14l-5.34,3.07
			l-2.62-1.51l5.43-3.3L6118.27,5193.49z M6115.75,5182.13l-2.57,1.48c-0.06-0.06-0.14-0.11-0.23-0.11l0.01-6.17l2.81-1.62
			L6115.75,5182.13z M6112.93,5177.29l-5.6-3.24l2.79-1.59l5.62,3.21L6112.93,5177.29z M6107.3,5173.95v-3.29l2.72,1.74
			L6107.3,5173.95z M6107.71,5180.87l4.89,2.82c-0.02,0.05-0.04,0.1-0.04,0.15c0,0.05,0.01,0.1,0.03,0.14l-5.33,3.06l-2.8-1.62
			v-3.19l2.38-1.37c0.09,0.14,0.25,0.24,0.44,0.24C6107.46,5181.1,6107.62,5181.01,6107.71,5180.87z M6106.76,5180.58
			c0,0.07,0.01,0.14,0.04,0.2l-2.37,1.37l-2.78-1.61l0-3.24l5.57-3.19l0.01,5.96C6106.96,5180.09,6106.76,5180.31,6106.76,5180.58z
			 M6104.38,5192l-5.57,3.22l-2.76-1.6l5.56-3.22L6104.38,5192z M6096.04,5174.04l2.71-1.57l0.02,3.14L6096.04,5174.04z
			 M6095.99,5173.96l0-3.14l2.71,1.58L6095.99,5173.96z M6090.74,5183.53c-0.09-0.13-0.23-0.22-0.39-0.23l-0.01-6l5.57-3.22
			l0.01,6.45L6090.74,5183.53z M6095.88,5193.62l-5.08,2.95c-0.1-0.16-0.28-0.27-0.48-0.27s-0.38,0.11-0.48,0.27l-5.1-2.94
			l5.57-3.22L6095.88,5193.62z M6084.71,5196.96l5.58,3.17l0,0l0,3.22l-5.58-3.23V5196.96z M6084.69,5193.54v-6.45l5.18-2.99
			c0.09,0.13,0.23,0.22,0.39,0.23v5.99L6084.69,5193.54z M6084.71,5196.9v-3.24l5.11,2.95c-0.04,0.08-0.06,0.16-0.06,0.26
			c0,0.3,0.24,0.55,0.54,0.57l0,2.63L6084.71,5196.9z M6089.88,5183.52l-5.18-2.99l0-3.16l2.76,1.62l0.01-3.31l2.81,1.62l0.01,5.99
			C6090.12,5183.3,6089.97,5183.39,6089.88,5183.52z M6085.13,5173.81l2.31-1.33l-0.01,3.11l-2.29-1.32
			c0.03-0.07,0.05-0.15,0.05-0.23C6085.19,5173.96,6085.17,5173.88,6085.13,5173.81z M6087.43,5175.65l-0.01,3.25l-2.71-1.59l0-2.75
			c0.17-0.01,0.32-0.11,0.41-0.25L6087.43,5175.65z M6087.44,5172.38l-2.36,1.36c-0.09-0.12-0.23-0.19-0.39-0.2v-6.01l2.77-1.6
			L6087.44,5172.38z M6084.65,5187.1v6.45l-5.6-3.23v-3.16l2.74,1.58l0.04,0.02l0.01-3.29L6084.65,5187.1z M6079.04,5200.08v-3.19
			l5.57-3.22v3.22L6079.04,5200.08z M6084.61,5196.95v3.16l-5.57,3.22v-3.2L6084.61,5196.95z M6079.32,5183.7l2.48-1.43l-0.01,3.13
			l-2.47-1.43c0.02-0.04,0.03-0.09,0.03-0.14C6079.35,5183.78,6079.34,5183.74,6079.32,5183.7z M6081.79,5185.45l-0.01,3.23
			l-2.73-1.57v-2.94c0.1-0.01,0.19-0.07,0.25-0.16L6081.79,5185.45z M6084.59,5193.63l-5.57,3.22l-2.82-1.62l-0.01-3.19l2.81-1.63
			L6084.59,5193.63z M6078.99,5196.89v3.21l-2.78-1.61l-0.01-3.21L6078.99,5196.89z M6078.95,5184.17v2.88l-2.75-1.58l2.51-1.45
			C6078.76,5184.1,6078.85,5184.16,6078.95,5184.17z M6078.95,5187.11v3.22l-2.76,1.6l-0.02-6.42L6078.95,5187.11z M6078.99,5200.15
			L6078.99,5200.15l0,3.19l-5.59-3.23v-5.97c0.17-0.01,0.31-0.11,0.4-0.24l2.35,1.36l0.01,3.25v0.01L6078.99,5200.15z
			 M6073.83,5193.85c0.04-0.07,0.06-0.15,0.06-0.23c0-0.08-0.02-0.15-0.05-0.22l2.31-1.34l0.01,3.14L6073.83,5193.85z
			 M6073.78,5193.31c-0.09-0.13-0.24-0.21-0.41-0.21v-6l2.75-1.59l0.02,6.44L6073.78,5193.31z M6078.94,5203.42l-2.75,1.59
			l-5.59-3.23l2.75-1.59L6078.94,5203.42z M6078.96,5203.46l-0.01,6.44l-2.76,1.59l0.02-6.44L6078.96,5203.46z M6073.33,5193.1
			c-0.16,0.01-0.31,0.09-0.39,0.22l-5.19-3l-0.01-6.46l5.59,3.23V5193.1z M6073.31,5194.14v5.97l-2.76,1.59l-0.01-6.43l2.38-1.38
			C6073,5194.02,6073.14,5194.12,6073.31,5194.14z M6073.39,5207.24c0.29-0.02,0.53-0.27,0.53-0.57c0-0.09-0.02-0.18-0.06-0.26
			l2.31-1.34l-0.02,6.44l-2.77,1.6L6073.39,5207.24z M6076.15,5211.63l-0.01,3.14l-2.71-1.57L6076.15,5211.63z M6073.39,5213.23
			l2.75,1.59l-0.02,6.2h0.05l0.02-6.17l2.31,1.33c-0.04,0.08-0.06,0.17-0.06,0.26c0,0.31,0.25,0.56,0.55,0.57v5.61
			c-0.11,0-0.2,0.06-0.26,0.14l-5.33-3.08V5213.23z M6078.52,5216.14l-2.33-1.35l0.01-3.19l2.8-1.62l5.57,3.22l-5.08,2.95
			c-0.1-0.16-0.28-0.27-0.48-0.27C6078.8,5215.88,6078.62,5215.98,6078.52,5216.14z M6079.03,5217.01c0.3-0.02,0.53-0.26,0.53-0.57
			c0-0.09-0.02-0.18-0.06-0.25l5.1-2.96v6.46l-5.33,3.07c-0.06-0.08-0.15-0.13-0.25-0.14V5217.01z M6079.05,5209.9l0.01-6.45
			l5.59,3.23l-0.01,6.45L6079.05,5209.9z M6079.09,5203.41l5.57-3.22l5.57,3.22l-5.57,3.22L6079.09,5203.41z M6084.69,5206.68
			l5.57-3.23l-0.01,5.94c-0.26,0.03-0.46,0.25-0.46,0.52c0,0.07,0.02,0.15,0.05,0.21l-5.16,3L6084.69,5206.68z M6084.75,5213.19
			l5.15-2.99c0.09,0.14,0.25,0.23,0.43,0.23c0.17,0,0.32-0.08,0.42-0.21l2.36,1.37l-0.03,3.24l-2.75,1.6L6084.75,5213.19z
			 M6093.06,5214.88l-0.03,3.15l-2.69,1.57v-3.14L6093.06,5214.88z M6090.34,5219.66l2.73-1.6l0.01-0.01l0.03-3.21l2.8-1.63v6.47
			l-5.17,2.98c-0.09-0.13-0.23-0.22-0.4-0.23V5219.66z M6090.35,5223.48c0.16-0.01,0.3-0.1,0.39-0.23l4.72,2.71
			c-0.04,0.08-0.06,0.17-0.06,0.26c0,0.31,0.25,0.56,0.55,0.57v5.9l-5.59-3.22V5223.48z M6096.01,5219.7v-6.47l0,0l2.74,1.58v6.47
			L6096.01,5219.7z M6096.06,5213.19l5.55-3.23l2.8,1.62l-5.62,3.19L6096.06,5213.19z M6098.8,5221.41l2.74,1.57l-2.74,1.58V5221.41
			z M6098.8,5221.3v-6.47l2.8,1.61v6.46L6098.8,5221.3z M6098.85,5214.8l5.58-3.17v3.16l-2.8,1.61L6098.85,5214.8z M6101.64,5216.45
			l2.78-1.6v6.45l-2.78,1.61V5216.45z M6101.69,5222.98l2.77-1.6l5.59,3.23l-2.78,1.61L6101.69,5222.98z M6107.3,5226.26l2.81-1.62
			l0.01,0.01v-0.01l2.75-1.59v6.44l-5.19,2.98c-0.09-0.11-0.23-0.19-0.39-0.2V5226.26z M6110.11,5221.3v-6.45l2.32,1.34
			c-0.04,0.08-0.06,0.17-0.06,0.26c0,0.3,0.24,0.55,0.54,0.57l-0.01,5.9L6110.11,5221.3z M6112.45,5216.15l-2.32-1.34l5.57-3.22
			l2.4,1.39c-0.04,0.07-0.06,0.15-0.06,0.23c0,0.08,0.02,0.15,0.05,0.22l-4.69,2.72c-0.1-0.16-0.28-0.26-0.48-0.26
			C6112.73,5215.88,6112.55,5215.99,6112.45,5216.15z M6112.96,5217.02c0.3-0.01,0.54-0.26,0.54-0.57c0-0.09-0.02-0.18-0.06-0.26
			l4.69-2.72c0.08,0.14,0.23,0.24,0.41,0.25l-0.01,5.96l-5.57,3.22L6112.96,5217.02z M6112.96,5223.02l5.59,3.24v6.43l-5.59-3.21
			L6112.96,5223.02z M6118.62,5219.69l0.01-5.96c0.17-0.02,0.32-0.12,0.4-0.26l2.35,1.36v6.46L6118.62,5219.69z M6119.04,5213.42
			c0.03-0.06,0.05-0.14,0.05-0.21c0-0.08-0.02-0.16-0.05-0.23l2.34-1.36v3.14L6119.04,5213.42z M6118.6,5209.9v-3.21l2.8-1.63
			l2.78,1.59v3.24l-2.8,1.62L6118.6,5209.9z M6121.42,5221.42l2.72,1.57l-2.72,1.57V5221.42z M6121.42,5221.31v-6.46l2.79,1.61
			l-0.01,6.46L6121.42,5221.31z M6121.42,5214.8v-3.2l2.8-1.62l2.81,1.62l-0.01,3.21l-2.78,1.61L6121.42,5214.8z M6127.08,5214.83
			l2.75-1.6l0,3.17L6127.08,5214.83z M6127.07,5214.79l0.01-3.16l2.72,1.57L6127.07,5214.79z M6127.08,5211.52l0.01-3.23l0-0.01
			l-2.82-1.62v-2.92c0.1-0.01,0.19-0.07,0.24-0.15l5.35,3.11v6.44L6127.08,5211.52z M6124.54,5203.54c0.02-0.05,0.04-0.1,0.04-0.15
			c0-0.04-0.01-0.07-0.02-0.11l2.54-1.48l5.58,3.24l-2.79,1.61L6124.54,5203.54z M6135.54,5196.87l-5.35-3.11
			c0.02-0.04,0.03-0.09,0.03-0.14c0-0.04-0.01-0.08-0.02-0.12l5.33-3.1l2.8,1.63l0.01,3.22L6135.54,5196.87z M6138.35,5195.3
			l0.02,6.42l-2.39,1.38c-0.09-0.14-0.24-0.23-0.42-0.23l0.01-5.96L6138.35,5195.3z M6129.92,5193.96c0.11-0.01,0.2-0.08,0.25-0.17
			l5.35,3.11l-0.01,5.96c-0.17,0.01-0.32,0.1-0.41,0.24l-5.18-3.01V5193.96z M6129.91,5193.27v-6.16l5.57-3.22v6.42l-5.33,3.1
			C6130.1,5193.34,6130.01,5193.29,6129.91,5193.27z M6135.52,5183.78l-2.78-1.61l0.02-6.44l2.76,1.59V5183.78z M6135.46,5183.86
			l-5.57,3.22l-2.8-1.62l5.6-3.2L6135.46,5183.86z M6129.87,5187.12v6.15c-0.11,0-0.21,0.06-0.27,0.14l-2.52-1.46l-0.01-6.46
			L6129.87,5187.12z M6129.56,5193.77l-2.48,1.44v-0.11l0-3.03l2.47,1.43c-0.01,0.04-0.02,0.08-0.02,0.12
			C6129.53,5193.67,6129.54,5193.72,6129.56,5193.77z M6127.08,5195.26l2.5-1.45c0.05,0.08,0.14,0.14,0.24,0.15v6.14l-2.75,1.6
			V5195.26z M6127.14,5201.78l2.74-1.59l5.19,3.02c-0.02,0.06-0.04,0.12-0.04,0.19c0,0.09,0.02,0.18,0.07,0.26l-2.37,1.37
			L6127.14,5201.78z M6135.12,5203.69c0.08,0.12,0.21,0.2,0.36,0.22v5.7c-0.16,0.03-0.28,0.17-0.28,0.34c0,0.04,0.01,0.07,0.02,0.1
			l-2.47,1.43l-0.01-6.42L6135.12,5203.69z M6135.25,5210.14c0.06,0.1,0.17,0.16,0.29,0.16c0.12,0,0.22-0.06,0.28-0.15l5.29,3.07
			l-2.75,1.59l-5.57-3.25L6135.25,5210.14z M6138.39,5214.85l2.75-1.58v6.42l-2.76,1.6L6138.39,5214.85z M6135.87,5210.07
			c0.01-0.04,0.02-0.08,0.02-0.12c0-0.18-0.14-0.33-0.32-0.35v-5.7c0.16-0.01,0.3-0.09,0.39-0.21l4.71,2.72
			c-0.04,0.08-0.06,0.17-0.06,0.26c0,0.31,0.25,0.56,0.55,0.57v5.91L6135.87,5210.07z M6140.7,5206.37l-4.71-2.72
			c0.05-0.08,0.07-0.17,0.07-0.26c0-0.07-0.01-0.14-0.04-0.2l2.39-1.38l5.56,3.23l-2.31,1.33c-0.1-0.16-0.28-0.27-0.48-0.27
			C6140.98,5206.1,6140.8,5206.21,6140.7,5206.37z M6138.39,5192.06l2.73,1.59l-2.72,1.57L6138.39,5192.06z M6138.41,5201.7
			l-0.02-6.42l2.75-1.58l-0.01,6.44L6138.41,5201.7z M6138.43,5191.98l2.74-1.6v3.2L6138.43,5191.98z M6138.39,5191.95l-2.8-1.63
			v-6.43l5.11,2.95c-0.04,0.08-0.07,0.17-0.07,0.27c0,0.31,0.25,0.56,0.55,0.57v2.64L6138.39,5191.95z M6141.14,5174.07v6.48
			l-5.57,3.22v-6.48l-2.79-1.6l5.55-3.23L6141.14,5174.07z M6135.54,5170.85l2.75,1.58l-5.55,3.23l-2.77-1.6L6135.54,5170.85z
			 M6129.94,5174.1l2.77,1.6l-0.02,6.44l-2.77-1.6L6129.94,5174.1z M6132.65,5182.23l-5.6,3.2l-2.35-1.36
			c0.04-0.07,0.06-0.16,0.06-0.25c0-0.07-0.02-0.15-0.04-0.21l5.16-2.99L6132.65,5182.23z M6127.08,5172.49l2.74,1.58l-2.76,1.59
			L6127.08,5172.49z M6127.06,5175.71l2.78-1.61l-0.02,6.44l-5.16,2.99c-0.09-0.13-0.24-0.22-0.41-0.23l0-2.75l2.77-1.61l0.01-0.01
			L6127.06,5175.71z M6124.73,5177.06l2.28-1.32l-0.02,3.17l-2.73,1.59l0-2.62c0.29-0.02,0.53-0.27,0.53-0.56
			C6124.79,5177.22,6124.77,5177.13,6124.73,5177.06z M6123.95,5171.01c0.06,0.08,0.16,0.13,0.27,0.13c0.11,0,0.21-0.06,0.28-0.14
			l2.53,1.46l-0.02,3.23l-2.31,1.33c-0.1-0.16-0.28-0.27-0.48-0.27c-0.2,0-0.37,0.1-0.48,0.26l-5.09-2.94L6123.95,5171.01z
			 M6118.62,5174.1l5.1,2.95c-0.04,0.08-0.07,0.17-0.07,0.27c0,0.31,0.25,0.56,0.56,0.57l0,2.65l-2.81,1.63l-2.79-1.61
			L6118.62,5174.1z M6121.31,5182.21l-2.73,1.59l-0.04,0.02l2.82,1.64l-2.78,1.61l-2.79-1.61l0.01-3.24l2.77-1.59L6121.31,5182.21z
			 M6118.52,5180.54l-2.72,1.57l0.01-6.43l2.72-1.57L6118.52,5180.54z M6118.5,5174.07l-2.72,1.57l-5.62-3.21l2.76-1.58
			L6118.5,5174.07z M6107.27,5161.04l5.6,3.23v6.49l-2.81,1.61l-2.76-1.77v-3.12l-5.6-3.23L6107.27,5161.04z M6101.67,5164.29
			l5.59,3.22v3.06l-5.59-3.57L6101.67,5164.29z M6101.66,5167.06l5.59,3.57v3.34l-5.32-3.07c0.01-0.04,0.02-0.07,0.02-0.11
			c0-0.18-0.13-0.32-0.3-0.34L6101.66,5167.06z M6101.9,5170.98l5.32,3.07l-5.6,3.2l-2.8-1.62l-0.02-3.19l2.53-1.46
			c0.06,0.09,0.17,0.15,0.29,0.15S6101.83,5171.08,6101.9,5170.98z M6101.56,5170.44c-0.17,0.02-0.3,0.17-0.3,0.34
			c0,0.04,0.01,0.08,0.02,0.11l-2.53,1.46l-2.76-1.6l0-2.67c0.29-0.02,0.53-0.27,0.53-0.57c0-0.1-0.02-0.19-0.07-0.27l5.11-2.96
			L6101.56,5170.44z M6095.97,5161.04l5.58,3.22l-5.11,2.95c-0.1-0.16-0.28-0.26-0.48-0.26c-0.19,0-0.36,0.1-0.47,0.25l-2.31-1.34
			v-3.15h-0.05v3.12l-2.73-1.58L6095.97,5161.04z M6090.36,5164.3l2.77,1.6v3.25l2.82,1.64l0,3.18l-5.58-3.22V5164.3z
			 M6095.88,5174.04l-5.57,3.22l-2.84-1.64l0.01-3.17l2.83-1.63L6095.88,5174.04z M6090.27,5170.75l-2.78,1.6l0.02-6.45l2.76-1.59
			V5170.75z M6079.33,5164.12l5.33-3.08l5.58,3.22l-5.57,3.22l-5.35-3.09c0.02-0.04,0.03-0.1,0.03-0.15
			C6079.35,5164.2,6079.34,5164.16,6079.33,5164.12z M6079.06,5164.58c0.1-0.02,0.18-0.07,0.24-0.15l5.35,3.09v6.01
			c-0.16,0.01-0.3,0.09-0.39,0.21l-5.21-3L6079.06,5164.58z M6079,5170.82l5.2,3c-0.03,0.07-0.05,0.15-0.05,0.23
			c0,0.08,0.02,0.16,0.05,0.23l-2.36,1.36l-0.02-0.01v0.02l-2.33,1.34c-0.1-0.16-0.28-0.26-0.48-0.26s-0.38,0.1-0.48,0.26
			l-5.11-2.95L6079,5170.82z M6073.39,5167.52l5.33-3.08c0.06,0.08,0.14,0.13,0.24,0.14l-0.01,6.15l-5.57,3.22L6073.39,5167.52z
			 M6073.35,5180.62l5.32,3.08c-0.02,0.04-0.03,0.08-0.03,0.13c0,0.05,0.01,0.1,0.03,0.15l-2.53,1.46l-0.03-0.02v0.03l-2.77,1.6
			l-5.58-3.23L6073.35,5180.62z M6073.3,5174.08l0.01,6.45l-5.57,3.2l-0.01-6.44L6073.3,5174.08z M6067.7,5190.41l5.19,3
			c-0.03,0.06-0.05,0.14-0.05,0.21c0,0.08,0.02,0.16,0.05,0.23l-2.38,1.38l-5.56-3.23L6067.7,5190.41z M6064.9,5185.46l2.74-1.58
			l0.01,6.44l-2.75,1.59V5185.46z M6064.86,5185.49v6.45l-2.77,1.6l-0.01-6.45L6064.86,5185.49z M6056.42,5203.38l0.01-6.5
			l5.57-3.21l-0.01,6.49l5.38,3.1c-0.02,0.04-0.03,0.09-0.03,0.14c0,0.05,0.01,0.11,0.04,0.15l-5.33,3.07L6056.42,5203.38z
			 M6062.07,5213.17v-6.5l5.33-3.07c0.05,0.08,0.14,0.14,0.24,0.15v6.2l5.62,3.25l-5.57,3.22L6062.07,5213.17z M6067.73,5222.95
			v-6.49l5.57-3.22v6.49l5.37,3.11c-0.02,0.04-0.02,0.08-0.02,0.13c0,0.06,0.02,0.12,0.04,0.16l-5.34,3.07L6067.73,5222.95z
			 M6079.01,5235.99l-5.63-3.25v-6.49l5.34-3.07c0.05,0.07,0.14,0.13,0.23,0.14v6.21l5.62,3.25L6079.01,5235.99z M6084.64,5232.7
			l-5.59-3.23v-6.16c0.1-0.01,0.18-0.07,0.24-0.15l5.35,3.09V5232.7z M6079.31,5223.12c0.02-0.05,0.04-0.1,0.04-0.16
			c0-0.04-0.01-0.08-0.02-0.12l5.33-3.07l2.78,1.6v3.24l-2.77,1.6L6079.31,5223.12z M6084.68,5232.69v-6.43l2.75-1.58v6.43
			L6084.68,5232.69z M6084.74,5232.77l5.57-3.22l5.59,3.22l-5.58,3.21L6084.74,5232.77z M6095.97,5245.77l-5.63-3.24v-6.51l5.57-3.2
			v6.5l5.24,3.01c-0.03,0.06-0.05,0.14-0.05,0.21c0,0.09,0.02,0.17,0.06,0.24L6095.97,5245.77z M6101.6,5242.02
			c-0.17,0.01-0.31,0.09-0.4,0.22l-2.39-1.38v-6.45l2.8,1.61V5242.02z M6098.8,5234.36v-3.19l2.54-1.46
			c0.06,0.08,0.16,0.14,0.28,0.14s0.21-0.06,0.28-0.14l4.92,2.83c-0.04,0.07-0.06,0.15-0.06,0.23c0,0.08,0.02,0.15,0.05,0.22
			l-5.19,2.98L6098.8,5234.36z M6102.04,5242.24c-0.09-0.12-0.23-0.21-0.4-0.22v-6l5.19-2.98c0.08,0.14,0.22,0.23,0.39,0.25v5.96
			L6102.04,5242.24z M6107.27,5245.78l-5.19-3c0.04-0.07,0.06-0.15,0.06-0.24c0-0.08-0.02-0.15-0.05-0.22l5.17-2.98l5.58,3.22
			L6107.27,5245.78z M6112.9,5242.49l-5.59-3.23v-5.96c0.17-0.01,0.32-0.11,0.41-0.25l4.71,2.71c-0.04,0.08-0.06,0.17-0.06,0.26
			c0,0.3,0.24,0.55,0.54,0.57V5242.49z M6112.45,5235.71l-4.71-2.71c0.03-0.07,0.05-0.14,0.05-0.22c0-0.09-0.02-0.17-0.06-0.24
			l5.18-2.98l5.6,3.22l-5.1,2.93c-0.1-0.16-0.28-0.26-0.48-0.26C6112.73,5235.44,6112.55,5235.55,6112.45,5235.71z M6112.95,5242.48
			v-5.9c0.31-0.01,0.55-0.26,0.55-0.57c0-0.1-0.02-0.19-0.07-0.26l5.09-2.92v6.13c-0.17,0.02-0.3,0.17-0.3,0.34
			c0,0.04,0.01,0.08,0.02,0.12L6112.95,5242.48z M6118.58,5245.8l-5.58-3.24l5.28-3.06c0.06,0.09,0.17,0.15,0.28,0.15
			c0.12,0,0.22-0.06,0.28-0.15l5.29,3.07L6118.58,5245.8z M6124.21,5242.5l-5.31-3.08c0.01-0.04,0.02-0.08,0.02-0.12
			c0-0.18-0.13-0.32-0.3-0.34v-6.14l2.76,1.59v0.01h0.01l2.82,1.63V5242.5z M6127.03,5250.64l-2.76-1.59l0.01-6.46l2.75-1.59
			V5250.64z M6127.03,5240.89l-2.78,1.61v-6.45l2.78-1.6V5240.89z M6127.03,5234.38l-2.8,1.62l-2.81-1.62v-3.21l2.38-1.37
			c0.09,0.13,0.25,0.21,0.42,0.21s0.32-0.08,0.42-0.21l2.39,1.38V5234.38z M6127.03,5231.07l-2.34-1.35
			c0.03-0.07,0.05-0.14,0.05-0.22c0-0.27-0.21-0.49-0.47-0.52v-5.96l2.76,1.6V5231.07z M6124.31,5222.99l5.3-3.07
			c0.06,0.08,0.16,0.13,0.27,0.13c0.11,0,0.2-0.05,0.27-0.13l2.49,1.44l-5.57,3.22L6124.31,5222.99z M6135.48,5242.59v6.45
			l-5.6,3.24l-2.79-1.61v-9.7l2.79-1.62L6135.48,5242.59z M6135.48,5229.48l-5.57,3.22v-5.88c0.3-0.02,0.54-0.26,0.54-0.57
			c0-0.09-0.02-0.18-0.06-0.26l5.1-2.95V5229.48z M6135.51,5222.92l-2.79-1.61l0.01-3.23v-0.01l-2.81-1.61l0-3.22l5.58,3.25V5222.92
			z M6129.97,5213.2l2.78-1.61l5.57,3.25l-2.78,1.6L6129.97,5213.2z M6138.29,5231.05l-2.72-1.57v-6.46l2.74-1.59L6138.29,5231.05z
			 M6138.32,5221.32l-2.76,1.6v-6.43l2.78-1.6L6138.32,5221.32z M6146.79,5223.01v6.48l-5.6,3.24l-2.84-1.64l0.03-9.68l2.81-1.63
			L6146.79,5223.01z M6141.21,5213.14v-5.9c0.3-0.02,0.54-0.26,0.54-0.57c0-0.09-0.02-0.18-0.06-0.25l2.3-1.32l0.03,6.43
			L6141.21,5213.14z M6138.46,5201.78l2.72-1.57l5.58,3.22l-2.74,1.58L6138.46,5201.78z M6146.79,5209.92l-2.73,1.57l-0.03-6.43
			l2.75-1.59V5209.92z M6146.82,5203.35l-5.59-3.22l0.01-6.45l5.59,3.23L6146.82,5203.35z M6152.44,5200.13l-5.57,3.21l0.01-6.45
			v-0.01l-5.6-3.24l5.57-3.22l5.6,3.24L6152.44,5200.13z"/>
	</g>
</svg>
